<?xml version="1.0" encoding="utf-8"?>
<!-- Generator: Adobe Illustrator 25.3.0, SVG Export Plug-In . SVG Version: 6.00 Build 0)  -->
<svg version="1.1" id="Layer_1" xmlns="http://www.w3.org/2000/svg" xmlns:xlink="http://www.w3.org/1999/xlink" x="0px" y="0px"
	 viewBox="0 0 576 395" style="enable-background:new 0 0 576 395;" xml:space="preserve">
<style type="text/css">
	.st0{fill:#00979D;}
	.st1{fill:#FFFFFF;}
</style>
<g>
	<path class="st0" d="M576,137C576,61.4,512.5,0,434.2,0c-7.2,0-14.7,0.6-21.9,1.5c-60.8,8.7-101.9,52.4-124.4,86
		c-22.8-33.6-63.5-77.3-124.4-86C156.4,0.6,149.2,0,142,0C63.5,0,0,61.4,0,137s63.5,137,141.8,137c7.2,0,14.7-0.6,21.9-1.5
		c60.8-8.7,101.9-52.4,124.4-86c22.8,33.6,63.5,77.3,124.4,86c7.2,0.9,14.7,1.5,21.9,1.5C512.5,273.6,576,212.5,576,137 M157,223.9
		c-5.1,0.6-9.9,1.2-15,1.2C92,226.3,50.3,187,48.8,137c1.5-50,43.2-89.6,93.5-88.4c5.1,0,9.9,0.3,15,0.9
		c57.2,8.1,92.6,64.7,104.3,87.2C249,159.1,214,216.1,157,223.9 M315,137c12-22.8,47.1-79.1,104.3-87.5c5.1-0.6,9.9-0.9,15-0.9
		c50-1.2,92,38.4,93.5,88.4c-1.5,50-43.2,89.6-93.5,88.4c-5.1,0-9.9-0.6-15-1.5C362,215.8,326.7,159.1,315,137"/>
	<rect x="102.8" y="123.5" class="st0" width="85.1" height="27.6"/>
	<polygon class="st0" points="443.5,151 472.3,151 472.3,123.5 443.5,123.5 443.5,94.7 416.3,94.7 416.3,123.5 387.2,123.5 
		387.2,151 416.3,151 416.3,179.8 443.5,179.8 	"/>
	<path class="st0" d="M40.2,314.4l-24.9,79.4h20.1l4.2-16.2h22.8l4.5,16.2h20.4L62,314.4C62,314.4,40.2,314.4,40.2,314.4z
		 M43.5,362.6l6.9-29.7l8.1,29.7H43.5z"/>
	<path class="st0" d="M162.1,341c0-15.3-8.1-26.4-30.3-26.4h-31.8v79.4h19.8v-25.5h9.9l12,25.2h23.1l-15.6-29.1
		C157.9,359.9,163,350.6,162.1,341 M130.1,352.7h-10.2v-22.5h9.9c9.3,0,11.7,3.6,11.7,10.5C141.5,350.3,137,352.7,130.1,352.7"/>
	<path class="st0" d="M204.1,314.4h-25.8v79.4h26.1c33.6,0,39.3-21.6,39.3-40.5C243.6,328.5,233.8,314.4,204.1,314.4 M205.3,377.6
		h-6.9v-47.1h5.7c17.4,0,19.2,8.1,19.2,23.7c0,13.5-1.2,23.4-17.4,23.4"/>
	<path class="st0" d="M301.8,362.6c0,12-3.3,16.2-12.3,16.2c-7.5,0-12-3-12-16.2v-48.2h-19.8v52.1c0,24,17.4,28.5,30.9,28.5
		c13.5,0,32.1-5.1,32.1-28.5v-52.1h-18.6L301.8,362.6z"/>
	<polygon class="st0" points="338,330.6 358.7,330.6 358.7,377.6 338,377.6 338,393.8 398.9,393.8 398.9,377.6 378.2,377.6 
		378.2,330.6 398.9,330.6 398.9,314.4 338,314.4 	"/>
	<polygon class="st0" points="462.1,362 436.3,314.4 415.1,314.4 415.1,393.8 433.6,393.8 433.6,342.8 460.6,393.8 480.4,393.8 
		480.4,314.4 462.1,314.4 	"/>
	<path class="st0" d="M526.6,313.5c-24,0-33.3,17.7-33.3,41.7c0,26.1,10.5,39.9,33.3,39.9c25.5,0,33.9-18,33.9-41.1
		C560.7,324,549.3,313.5,526.6,313.5 M526.6,379.1c-11.4,0-12.6-8.1-12.6-24c0-19.5,1.8-25.8,12.3-25.8s13.2,5.4,13.2,24.6
		C539.7,373.4,538.2,379.1,526.6,379.1"/>
	<g>
		<path class="st1" d="M562.6,18.3h-2.1v5.1h2.1c1.8,0,2.7-0.6,2.7-2.7S564.7,18.3,562.6,18.3z"/>
		<path class="st0" d="M569.5,20.7c0-3.3-1.8-5.4-6.6-5.4h-6v16.2h3.6v-5.4h2.4l2.4,5.4h4.2l-3-6C568.3,24.6,569.5,22.8,569.5,20.7z
			 M562.6,23.4h-2.1v-5.1h2.1c2.1,0,2.7,0.3,2.7,2.4S564.4,23.4,562.6,23.4z"/>
	</g>
</g>
<g>
	<path class="st0" d="M562.9,12.1c6.1,0,11.1,5,11.1,11.1c0,6.1-5,11.1-11.1,11.1s-11.1-5-11.1-11.1
		C551.9,17.1,556.8,12.1,562.9,12.1 M562.9,10.1c-7.2,0-13.1,5.8-13.1,13.1s5.8,13.1,13.1,13.1c7.2,0,13.1-5.8,13.1-13.1
		S570.1,10.1,562.9,10.1L562.9,10.1z"/>
</g>
</svg>
